# xmcd
#
# Track frame offsets:
#	150
#	6318
#	14977
#	22567
#	29980
#	39369
#
# Disc length: 589 seconds
#
# Revision: 1
# Processed by: cddbd v1.5.2PL0 Copyright (c) Steve Scherf et al.
# Submitted via: audiograbber 1.83.01
#
DISCID=44024b06
DTITLE=Silertone - Live Promo
DYEAR=2008
DGENRE=Folk/Blues
TTITLE0=Maluzanna
TTITLE1=Let Me Do It
TTITLE2=Croisade
TTITLE3=Time to Move
TTITLE4=When the Rise Will Fall
TTITLE5=Jade
EXTD=silvertone94@yahoo.ca\nmyspace.com/silvertone94\nfreedb submission by Bigu
EXTD=eNique@fiatlux.tk\nhttp://radio.fiatlux.tk/
EXTT0=
EXTT1=
EXTT2=
EXTT3=
EXTT4=
EXTT5=
PLAYORDER=
